<?xml version="1.0" encoding="UTF-8"?>
<svg width="25px" height="28px" viewBox="0 0 25 28" version="1.1" xmlns="http://www.w3.org/2000/svg" xmlns:xlink="http://www.w3.org/1999/xlink">
    <title>headphones</title>
    <g id="Symbols" stroke="none" stroke-width="1" fill="none" fill-rule="evenodd">
        <g id="Header" transform="translate(-1229.000000, -114.000000)" fill="#FFFFFF" fill-rule="nonzero">
            <g transform="translate(0.000000, 43.000000)" id="Menu">
                <g transform="translate(0.000000, 60.000000)">
                    <g id="headphones" transform="translate(1229.000000, 11.000000)">
                        <path d="M22.2826087,9.57810718 C22.2826087,4.28826492 17.9027853,0 12.5,0 C7.09721467,0 2.7173913,4.28826492 2.7173913,9.57810718 C1.32065217,9.74838464 0,10.6423413 0,12.7175979 L0,17.7194983 C0,20.0608134 1.67391304,20.9122007 3.26086957,20.9122007 L4.83695652,20.9122007 C5.13709239,20.9122007 5.38043478,20.6739453 5.38043478,20.3800836 L5.38043478,10.0782972 C5.38043478,9.78443558 5.13709239,9.54618016 4.83695652,9.54618016 L3.80434783,9.54618016 C3.80434783,4.84412771 7.69755435,1.03230711 12.5,1.03230711 C17.3024457,1.03230711 21.1956522,4.84412771 21.1956522,9.54618016 L20.1630435,9.54618016 C19.8629076,9.54618016 19.6195652,9.78443558 19.6195652,10.0782972 L19.6195652,20.3641201 C19.6195652,20.6579818 19.8629076,20.8962372 20.1630435,20.8962372 L21.1956522,20.8962372 C21.0434783,24.5518814 19.25,25.4085899 15.6684783,25.5629038 L15.6684783,25.2063854 C15.6684783,24.6185956 15.1818614,24.1421513 14.5815217,24.1421513 L11.1630435,24.1421513 C10.5627038,24.1421513 10.076087,24.6185956 10.076087,25.2063854 L10.076087,26.9357659 C10.076087,27.5235557 10.5627038,28 11.1630435,28 L14.5923913,28 C15.192731,28 15.6793478,27.5235557 15.6793478,26.9357659 L15.6793478,26.627138 C19.125,26.472824 22.1032609,25.7757507 22.2826087,20.8643101 C23.6793478,20.6940327 25,19.800076 25,17.7248195 L25,12.722919 C25,10.6370201 23.6847826,9.74838464 22.2826087,9.57810718 Z M4.29347826,10.5731661 L4.29347826,19.832003 L3.23369565,19.832003 C2.42934783,19.832003 1.05978261,19.5553022 1.05978261,17.7035348 L1.05978261,12.7016344 C1.05978261,10.8658305 2.41304348,10.5731661 3.23369565,10.5731661 L4.29347826,10.5731661 Z M14.5923913,26.1322691 L14.5923913,26.941087 L11.1630435,26.941087 L11.1630435,25.2117066 L14.5923913,25.2117066 L14.5923913,26.1322691 Z M23.9130435,17.7194983 C23.9130435,19.5553022 22.5597826,19.8479666 21.7391304,19.8479666 L20.7065217,19.8479666 L20.7065217,10.6104143 L21.7663043,10.6104143 C22.5706522,10.6104143 23.9402174,10.8871152 23.9402174,12.7388826 L23.9130435,17.7194983 Z" id="Shape"></path>
                    </g>
                </g>
            </g>
        </g>
    </g>
</svg>